<svg xmlns="http://www.w3.org/2000/svg" viewBox="0 0 32 32" fill="white">
  <path d="M19.11 17.19c-.27-.14-1.6-.79-1.85-.88-.25-.09-.43-.14-.61.14-.18.27-.7.88-.86 1.06-.16.18-.32.2-.59.07-.27-.14-1.13-.42-2.15-1.33-.79-.7-1.32-1.56-1.47-1.83-.16-.27-.02-.42.12-.56.12-.12.27-.32.41-.48.14-.16.18-.27.27-.45.09-.18.05-.34-.02-.48-.07-.14-.61-1.47-.84-2.01-.22-.54-.45-.47-.61-.48l-.52-.01c-.18 0-.48.07-.73.34-.25.27-.95.93-.95 2.26 0 1.33.97 2.62 1.1 2.8.14.18 1.91 2.92 4.63 4.09.65.28 1.15.45 1.54.57.65.21 1.24.18 1.71.11.52-.08 1.6-.65 1.83-1.27.23-.62.23-1.15.16-1.27-.07-.12-.25-.2-.52-.34z"></path>
  <path d="M16 3C9.38 3 4 8.38 4 15c0 2.61.83 5.02 2.24 7L4 29l7.18-2.18C12.8 27.59 14.36 28 16 28c6.62 0 12-5.38 12-12S22.62 3 16 3z"></path>
</svg>
